<svg xmlns="http://www.w3.org/2000/svg" viewBox="0 0 64 64">
  <rect width="64" height="64" rx="14" fill="#0f172a"/>
  <rect x="8" y="50" width="48" height="6" rx="3" fill="#1e293b" opacity="0.7"/>
  <path d="M22.4 14.5 c -1.6 0 -2.9 1.0 -3.7 2.5 l -1.9 4.4 c -0.3 0.7 -1.0 1.2 -1.8 1.2 H 12 c -1.4 0 -2.5 1.0 -2.5 2.4 v 4.8 c 0 1.0 0.8 1.8 1.8 1.8 H 14 l -1.0 4.0 c -0.5 1.8 0.5 3.7 2.3 4.2 l 1.9 0.6 c 1.6 0.3 3.2 -0.5 4.0 -1.9 l 1.3 -2.4 V 50 h 24 V 40.7 c 0 -9.7 -4.4 -17.2 -11.7 -21.7 l -1.6 -1.0 c -1.4 -0.9 -3.0 -1.4 -4.6 -1.4 H 22.4 z M 39.5 22.5 a 1.8 1.8 0 1 1 0 3.7 a 1.8 1.8 0 0 1 0 -3.7 z" fill="#fbbf24"/>
</svg>
